<svg width="103" height="71" viewBox="0 0 103 71" fill="none" xmlns="http://www.w3.org/2000/svg">
<path d="M27.0562 54.1346C27.1552 54.1346 51.2192 28.4958 53.1503 25.3881C55.0506 22.3297 56.2376 16.7937 55.9733 9.44485C110.695 1.9299 122.179 51.9708 66.0669 69.9507C121.012 48.7965 85.4557 5.20452 65.1687 27.9161C49.1809 41.6191 62.2337 38.374 66.5909 36.8756C70.9482 35.3772 82.4625 26.9975 81.2247 28.4403C79.9868 29.8832 59.7851 47.6971 56.7153 51.0823C53.6454 54.4675 54.1901 69.9507 54.1901 69.9507C-2.63837 74.1636 -3.27741 28.1071 50.3967 11.4033C28.9681 23.5169 12.6477 41.4262 18.2427 51.0823C23.8377 60.7385 40.5737 60.7385 48.2979 56.0769C56.0221 51.4153 55.725 37.597 51.6648 39.9833C47.6047 42.3696 26.5607 55.0225 26.5607 55.0225C26.5607 55.0225 26.9572 54.1346 27.0562 54.1346Z" fill="#00FF7F"/>
<path d="M92.7576 1.44672C85.3348 1.14281 86.7338 1.89918 74.3574 7.06114C82.3342 4.42867 88.3523 2.59663 92.7576 1.44672Z" fill="#00FF7F"/>
<path d="M92.8085 1.44881C94.9996 4.66357 94.4797 6.92664 91.3748 11.9857L91.5673 11.8289C102.408 3.44576 109.769 -2.99376 92.7576 1.44672L92.8085 1.44881Z" fill="#00FF7F"/>
<path d="M1.67512 63.4946C-3.17549 71.8628 2.68665 72.6285 16.9471 64.1598C7.75921 65.1252 2.67804 65.1662 1.67512 63.4946Z" fill="#00FF7F"/>
<path d="M1.67512 63.4946C0.80007 62.0362 3.02964 59.2741 8.34492 54.6849C5.24312 58.1966 3.03693 61.1452 1.67512 63.4946Z" fill="#00FF7F"/>
</svg>
